<svg width="1312.935" height="284.958" viewBox="0 0 347.381 75.395" xml:space="preserve" xmlns="http://www.w3.org/2000/svg">
    <defs>
        <path id="a" d="M-17.311-331.563h296.942v195.742H-17.311z"/>
    </defs>
    <path style="opacity:1;fill:#fff;fill-opacity:1;stroke-width:.264583;stroke:#000;stroke-opacity:.00544537" d="M-69.053-174.043h347.381v75.395H-69.053z" transform="translate(69.053 174.043)"/>
    <path style="font-weight:700;font-size:45.1052px;font-family:Ubuntu;-inkscape-font-specification:'Ubuntu Bold';text-align:start;writing-mode:lr-tb;direction:ltr;text-anchor:start;opacity:1;fill:#5eaa19;fill-opacity:1;stroke-width:3.75876" d="M100.093-151.813c-1.307 0-2.794.06-4.457.18a40.373 40.373 0 0 0-4.79.64.475.475 0 0 0-.384.468v30.806a.475.475 0 0 0 .475.475h7.036a.475.475 0 0 0 .474-.475v-10.937h2.758c.751.88 1.496 1.886 2.228 3.068a.475.475 0 0 0 .004.008 114.314 114.314 0 0 1 2.426 3.951c.81 1.38 1.589 2.759 2.338 4.138a.475.475 0 0 0 .418.248h7.893a.475.475 0 0 0 .43-.678 76.096 76.096 0 0 0-1.773-3.496 64.1 64.1 0 0 0-1.99-3.442l-.007-.012a45.676 45.676 0 0 0-2.043-3.222 47.923 47.923 0 0 0-1.672-2.24c1.682-.783 3.063-1.78 4.01-3.07 1.093-1.48 1.624-3.383 1.624-5.651 0-3.629-1.33-6.413-3.952-8.152l-.004-.003c-2.61-1.76-6.296-2.603-11.042-2.603zm42.821.008h.001c-1.255 0-2.54.066-3.852.188-1.322.123-2.368.302-3.172.57a.691.691 0 0 0-.464.643v30.176c0 .304.223.586.519.658.911.22 2.03.403 3.37.555l.02.002h.001v.001h.001v.001h.018l-.004-.002c1.366.121 2.69.184 3.969.184 3.566 0 6.666-.631 9.273-1.918h.002l.003-.002h.001c2.634-1.318 4.675-3.225 6.063-5.686 1.42-2.495 2.115-5.475 2.115-8.905 0-3.394-.694-6.345-2.111-8.808l-.002-.002v-.002c-1.388-2.492-3.447-4.4-6.112-5.688h-.004l-.004-.001v-.001l-.008-.002c-2.669-1.315-5.883-1.961-9.623-1.961zm47.045.18-1.802.002a9.443 9.443 0 0 1-.011.172h-.187a.475.475 0 0 0-.454.615l-.02-.033c.025.058.07.22.074.242l-.005-.011.004.014h.001c.87 1.71 1.726 3.375 2.566 4.996l.004.005.002.002.014-.005a.042.042 0 0 0-.01.01v.002h-.002a214.888 214.888 0 0 0 2.62 4.66 157.002 157.002 0 0 0 2.665 4.419v-.006l.006.004v.002a.047.047 0 0 0 .011.02l-.003-.002h-.001v.002-.002a.04.04 0 0 0 0 .003l.003.004.001.002v.003l.002.002s.002 0 .003.002h.001v.001a100.675 100.675 0 0 0 2.682 3.983v12.83c0 .178.071.354.197.48a.687.687 0 0 0 .481.198h1.668a.686.686 0 0 0 .48-.198.685.685 0 0 0 .198-.48v-12.92a285.467 285.467 0 0 0 2.857-4.336l.002-.002.001-.001.004-.003.004-.007v-.001l.002-.002.004-.008a148.153 148.153 0 0 0 2.757-4.381 106.053 106.053 0 0 0 2.545-4.45l.002-.006.003-.002v-.002a80.854 80.854 0 0 0 2.36-4.867l.004-.008.002-.004v-.016l.001.002c.079-.2.06-.43-.056-.611a.69.69 0 0 0-.567-.313h-1.715a.69.69 0 0 0-.62.408 66.476 66.476 0 0 1-2.368 4.866 93.72 93.72 0 0 1-3.082 5.273h-.001v.001h-.001l-.007.007v.002l-.002.001v.001a459.158 459.158 0 0 1-3.621 5.724 130.843 130.843 0 0 1-4.587-7.31h.002l.001-.001v-.001l.001-.001v-.005h-.003l-.001.001-.001.003h-.001l-.004-.006c0-.003 0-.006-.002-.01a124.296 124.296 0 0 1-4.49-8.566.686.686 0 0 0-.61-.387h-.001zm41.408 0-1.804.002a9.443 9.443 0 0 1-.01.172h-.188a.475.475 0 0 0-.454.615l-.02-.033c.025.058.07.22.075.242l-.006-.011.005.014a729.1 729.1 0 0 0 2.566 4.996l.005.005.002.002.013-.005a.042.042 0 0 0-.01.01v.002h-.002a214.973 214.973 0 0 0 2.621 4.66 157.026 157.026 0 0 0 2.665 4.419v-.006l.005.004v.002a.047.047 0 0 0 .012.02l-.003-.002h-.002v.002l.001-.002v.003l.002.004.002.002v.003l.002.002.002.002h.001v.001a100.664 100.664 0 0 0 2.682 3.983v12.83c0 .178.072.354.198.48a.687.687 0 0 0 .48.198h1.668a.686.686 0 0 0 .48-.198.685.685 0 0 0 .198-.48v-12.92a284.683 284.683 0 0 0 2.86-4.336l.001-.002.001-.001.003-.003.005-.007v-.001l.002-.002.004-.008a148.015 148.015 0 0 0 2.755-4.381 106.044 106.044 0 0 0 2.545-4.45l.002-.006.002-.002v-.002a80.848 80.848 0 0 0 2.361-4.867l.002-.008.004-.004v-.006a.1.1 0 0 0 0-.01l.001.002a.679.679 0 0 0-.059-.613.686.686 0 0 0-.566-.31h-1.713a.69.69 0 0 0-.62.407 66.472 66.472 0 0 1-2.368 4.866 93.707 93.707 0 0 1-3.082 5.273h-.001v.001h-.001l-.007.007v.001h-.001v.001l-.001.001v.001a461.907 461.907 0 0 1-3.62 5.724 130.667 130.667 0 0 1-4.588-7.31h.002v-.001l.001-.001v-.006h-.002l-.001.001-.001.003h-.001l-.005-.006-.001-.01a124.247 124.247 0 0 1-4.488-8.566.686.686 0 0 0-.61-.387h-.001zm-55.435.002a.69.69 0 0 0-.619.4 331.621 331.621 0 0 0-4.517 10.442 428.184 428.184 0 0 0-4.108 10.238l-.002.003a.058.058 0 0 0-.004.012v.001l-.002.003v.003a2443.263 2443.263 0 0 0-3.967 10.595.688.688 0 0 0 .078.625c.125.18.337.292.556.292h1.715c.278 0 .54-.18.637-.44a283.214 283.214 0 0 0 1.668-4.607l.004-.01.002-.004 1.543-4.14h15.295l1.55 4.16 1.715 4.601c.097.26.359.44.635.44h1.803c.218 0 .43-.11.554-.29a.69.69 0 0 0 .082-.622v-.001l-.001-.001a949.786 949.786 0 0 0-3.475-9.296 390.13 390.13 0 0 0-3.028-7.726 212.87 212.87 0 0 0-2.982-6.998c0-.002 0-.004-.002-.006l-.002-.006v-.004a268.19 268.19 0 0 0-3.251-7.27.687.687 0 0 0-.614-.394h-1.263zm40.008 0a2.692 2.692 0 0 0-.276.178.475.475 0 0 0-.397.458.106.106 0 0 0-.007.04v.002h.002v31.258c0 .178.071.354.197.48a.687.687 0 0 0 .481.198h16.6a.687.687 0 0 0 .48-.198.685.685 0 0 0 .198-.48v-1.533a.687.687 0 0 0-.198-.48.687.687 0 0 0-.48-.198h-14.252v-29.047a.686.686 0 0 0-.197-.48.687.687 0 0 0-.48-.198h-1.67zm-212.959.172h-5.727a.475.475 0 0 0-.475.475v31.258a.475.475 0 0 0 .475.475h6.945a.475.475 0 0 0 .474-.475v-19.125c.748.907 1.498 1.81 2.214 2.765a.475.475 0 0 0 .007.01 96.98 96.98 0 0 1 5.746 8.08.475.475 0 0 0 .004.007c.928 1.407 1.81 2.813 2.648 4.22a.475.475 0 0 0 .004.008c.869 1.408 1.707 2.83 2.516 4.267a.475.475 0 0 0 .414.243h5.91a.475.475 0 0 0 .475-.475v-31.258a.475.475 0 0 0-.475-.475h-6.992a.475.475 0 0 0-.475.475v16.916c-.618-.914-1.227-1.826-1.887-2.754l-.003-.004a129.725 129.725 0 0 0-2.977-4.107l-.008-.01a114.09 114.09 0 0 0-2.982-3.975 102.1 102.1 0 0 0-2.895-3.53l-.005-.005a43.061 43.061 0 0 0-2.595-2.868.475.475 0 0 0-.336-.138zm27.921 0a.475.475 0 0 0-.475.475v19.44c0 2.492.449 4.713 1.354 6.65a.475.475 0 0 0 .001.005c.942 1.947 2.4 3.5 4.339 4.625a.475.475 0 0 0 .008.006c1.985 1.103 4.473 1.637 7.447 1.637 3.033 0 5.55-.533 7.537-1.637 1.969-1.093 3.447-2.63 4.39-4.578l.003-.006c.968-1.938 1.445-4.18 1.445-6.703v-19.439a.475.475 0 0 0-.474-.475h-7.038a.475.475 0 0 0-.474.475v18.853c0 2.458-.535 4.108-1.48 5.028a.475.475 0 0 0-.004.004c-.962.961-2.198 1.44-3.815 1.44-1.585 0-2.825-.465-3.818-1.4-.913-.919-1.436-2.586-1.436-5.071v-18.853a.475.475 0 0 0-.474-.475h-7.036zm29.633 0a.475.475 0 0 0-.475.475v5.998a.475.475 0 0 0 .475.475h8.953v24.785a.475.475 0 0 0 .475.475H77a.475.475 0 0 0 .475-.475v-24.785h8.95a.475.475 0 0 0 .475-.475v-5.998a.475.475 0 0 0-.475-.475h-25.89zm60.486 0a.475.475 0 0 0-.474.475v31.258a.475.475 0 0 0 .474.475h7.038a.475.475 0 0 0 .474-.475v-31.258a.475.475 0 0 0-.474-.475h-7.038zm-148.174.043c-1.198.062-1.341.022-1.4.024-3.286.018-6.585-.037-9.887.025a.475.475 0 0 0-.09.01 1.442 1.442 0 0 0-.832.5c-.19.241-.28.52-.326.783-.087.506-.032 1.007-.03 1.349-.096.497.02 1.005.306 1.405.297.415.833.707 1.428.621a.475.475 0 0 0 .002 0c.082-.012.125-.009.191-.014-.01.016-.005.013-.017.03a.475.475 0 0 0-.056.095c-1.094 2.593-2.31 5.162-3.347 7.813a.475.475 0 0 0-.028.113c-.224 1.74-.041 3.455-.1 5.09a.475.475 0 0 0 0 .023c.033 2.827-.063 5.681.052 8.541a.475.475 0 0 0 .008.067c.316 1.71 2.041 2.765 3.692 2.532h6.695a.475.475 0 0 0 .422-.696c-.337-.643-.6-1.33-.8-2.037a.475.475 0 0 0-.456-.346h-6.533v-12.398c1.251-2.936 2.503-5.872 3.753-8.809h3.987l3.125 7.368a.475.475 0 0 0 .736.183c.533-.43 1.137-.797 1.764-1.146a.475.475 0 0 0 .205-.604l-2.53-5.816c.206 0 .364.025.588-.012.495-.081 1.07-.405 1.26-1.04a.475.475 0 0 0 .02-.126c.02-.777.231-1.767-.153-2.73a.475.475 0 0 0-.058-.108c-.412-.558-1.061-.688-1.59-.69zm170.068 2.494c4.85 0 8.475 1.195 10.998 3.52 2.523 2.325 3.797 5.615 3.797 10.054 0 4.348-1.26 7.632-3.762 10.02l-.004.004-.002.002c-2.468 2.38-5.961 3.595-10.62 3.595-1.07 0-2.08-.03-3.026-.09a21.25 21.25 0 0 1-1.844-.2v-26.571a21.894 21.894 0 0 1 1.94-.202l.008-.001h.008l.005-.002h.003a29.303 29.303 0 0 1 2.5-.129zm-2.487.053-.013.043-.016-.01.03-.033zm-159.736.757a.475.475 0 0 0-.061.004c-.17.023-.137.02-.2.026-2.322.406-3.738 2.99-2.95 5.18.45 1.383 1.695 2.45 3.151 2.638a.475.475 0 0 0 .536-.47v-6.903a.475.475 0 0 0-.476-.475zm195.83.883c.548 1.296 1.09 2.576 1.54 3.624a187.86 187.86 0 0 1 1.752 4.222l.002.004.004.012.008.014c.565 1.31 1.128 2.695 1.695 4.155v.001l.002.004v.002l.001.001v.004a.043.043 0 0 0 .007.012v.001l.001.004v.001c.488 1.17 1.04 2.58 1.612 4.063h-13.13a240.361 240.361 0 0 1 1.54-4.035 1273.662 1273.662 0 0 1 1.662-4.183v-.001h.001v-.002l.001-.001.004-.005v-.006a382.564 382.564 0 0 0 1.75-4.213v-.003h.002v-.006l.002-.007.002-.002v.004l.001-.002.001-.003v-.006l1.54-3.653zm-74.945 2.354c1.362.101 5.416.655 5.416 3.678 0 3.633-6.033 3.919-6.033 3.919l-.032.034c-.31.017-.615.037-.971.037h-1.51v-7.566c.227-.02.45-.036.688-.055.407-.029.863-.045 1.365-.045.452.03.802.047 1.073.058l.004-.06zm-116.323.76c-.12.003-.242.012-.368.027-1.776.13-3.29 1.572-3.513 3.336a.475.475 0 0 0 .47.535h6.905a.475.475 0 0 0 .47-.533c-.24-1.958-2.032-3.409-3.963-3.365h-.001zm-3.457 5.68a9.465 9.465 0 0 0-1.045.005c-4.762.092-8.95 4.214-9.117 8.973-.265 3.16 1.153 6.333 3.665 8.258l.007.004c3.7 3.02 9.598 2.651 12.851-.873 3.583-3.473 3.663-9.72.178-13.287l-.004-.005c-1.675-1.866-4.059-2.954-6.535-3.076zm-.547 3.073a.475.475 0 0 0 .011 0c3.396-.098 6.57 2.993 6.537 6.392a.475.475 0 0 0 0 .03c.193 3.446-2.936 6.722-6.386 6.685a.475.475 0 0 0-.033 0c-3.41.19-6.66-2.878-6.674-6.29a.475.475 0 0 0 0-.03c-.248-3.442 2.836-6.763 6.283-6.776a.475.475 0 0 0 .01 0c.107-.002.19-.01.252-.01z" transform="translate(69.053 174.043)"/>
</svg>
