<?xml version="1.0" encoding="UTF-8" standalone="no"?>
<!-- Created with Inkscape (http://www.inkscape.org/) -->

<svg
   width="82.793594mm"
   height="82.793594mm"
   viewBox="0 0 82.793594 82.793594"
   version="1.1"
   id="svg1"
   xml:space="preserve"
   inkscape:version="1.4.2 (ebf0e940d0, 2025-05-08)"
   sodipodi:docname="nutridayly-sq.svg"
   xmlns:inkscape="http://www.inkscape.org/namespaces/inkscape"
   xmlns:sodipodi="http://sodipodi.sourceforge.net/DTD/sodipodi-0.dtd"
   xmlns="http://www.w3.org/2000/svg"
   xmlns:svg="http://www.w3.org/2000/svg"><sodipodi:namedview
     id="namedview1"
     pagecolor="#ffffff"
     bordercolor="#000000"
     borderopacity="0.25"
     inkscape:showpageshadow="2"
     inkscape:pageopacity="0.0"
     inkscape:pagecheckerboard="0"
     inkscape:deskcolor="#d1d1d1"
     inkscape:document-units="mm"
     showguides="true"
     inkscape:zoom="0.26551473"
     inkscape:cx="1642.0935"
     inkscape:cy="88.507331"
     inkscape:window-width="1920"
     inkscape:window-height="1008"
     inkscape:window-x="0"
     inkscape:window-y="0"
     inkscape:window-maximized="1"
     inkscape:current-layer="layer1"><sodipodi:guide
       position="32.429438,197.26536"
       orientation="0,-1"
       id="guide11"
       inkscape:locked="false" /></sodipodi:namedview><defs
     id="defs1"><rect
       x="-17.310505"
       y="-331.56274"
       width="296.94174"
       height="195.74187"
       id="rect9" /></defs><g
     inkscape:label="Capa 1"
     inkscape:groupmode="layer"
     id="layer1"
     transform="translate(183.55515,175.80427)"><text
       xml:space="preserve"
       transform="scale(0.26458333)"
       id="text9"
       style="font-style:normal;font-variant:normal;font-weight:bold;font-stretch:normal;font-family:D050000L;-inkscape-font-specification:'D050000L Bold';text-align:start;writing-mode:lr-tb;direction:ltr;white-space:pre;shape-inside:url(#rect9);display:inline;opacity:1;fill:#27be5e;fill-opacity:1" /><path
       id="path11"
       style="opacity:1;fill:#5eaa19;fill-opacity:1;stroke-width:0.264583"
       d="M -142.15819 -175.80427 A 41.396797 41.396797 0 0 0 -183.55515 -134.40731 A 41.396797 41.396797 0 0 0 -142.15819 -93.010874 A 41.396797 41.396797 0 0 0 -100.76175 -134.40731 A 41.396797 41.396797 0 0 0 -142.15819 -175.80427 z M -118.07749 -146.41278 C -115.29377 -146.41278 -112.93162 -145.93347 -110.99214 -144.97514 C -109.05265 -144.03962 -107.58087 -142.67048 -106.5769 -140.8679 C -105.55011 -139.08814 -105.03695 -136.94307 -105.03695 -134.43315 C -105.03695 -131.90042 -105.55011 -129.73277 -106.5769 -127.93019 C -107.58087 -126.15044 -109.04137 -124.78179 -110.95803 -123.82346 C -112.85188 -122.88795 -115.12216 -122.41993 -117.76898 -122.41993 C -118.72731 -122.41993 -119.72032 -122.46557 -120.7471 -122.55687 C -121.75107 -122.67096 -122.58394 -122.80798 -123.24565 -122.9677 L -123.24565 -145.86501 C -122.69803 -146.04755 -121.93341 -146.18454 -120.95225 -146.27584 C -119.9711 -146.36709 -119.013 -146.41278 -118.07749 -146.41278 z M -149.2575 -146.27584 L -144.911 -146.27584 C -144.29493 -145.65976 -143.64473 -144.94081 -142.96021 -144.11938 C -142.25287 -143.29795 -141.52262 -142.40811 -140.76965 -141.44978 C -140.01667 -140.49145 -139.26384 -139.48768 -138.51087 -138.43808 C -137.73507 -137.41129 -136.98225 -136.37315 -136.25209 -135.32354 C -135.52193 -134.29675 -134.82555 -133.28117 -134.16385 -132.27721 L -134.16385 -146.27584 L -128.85875 -146.27584 L -128.85875 -122.55687 L -133.34219 -122.55687 C -133.95826 -123.65211 -134.59717 -124.73595 -135.25887 -125.80836 C -135.89776 -126.88078 -136.57105 -127.95331 -137.27839 -129.02573 C -137.96292 -130.09816 -138.67058 -131.14811 -139.40074 -132.17489 C -140.1309 -133.20168 -140.88373 -134.20544 -141.65952 -135.18659 C -142.4125 -136.19056 -143.18842 -137.16047 -143.98702 -138.09598 L -143.98702 -122.55687 L -149.2575 -122.55687 L -149.2575 -146.27584 z M -167.77782 -146.24225 C -167.42151 -146.24127 -167.08912 -146.17445 -166.86056 -145.86501 C -166.62185 -145.26555 -166.75444 -144.56717 -166.77064 -143.93438 C -166.9809 -143.2332 -167.81188 -143.38841 -168.37055 -143.38041 C -167.65905 -141.74552 -166.94874 -140.10993 -166.23786 -138.47477 C -166.72056 -138.20561 -167.19798 -137.91961 -167.62847 -137.57146 C -168.44996 -139.50774 -169.27144 -141.44413 -170.09292 -143.38041 L -173.59607 -143.38041 C -174.58506 -141.05692 -175.57467 -138.73377 -176.56488 -136.41081 L -176.56488 -126.56852 L -171.24789 -126.56852 C -171.09092 -126.01115 -170.88357 -125.46669 -170.61485 -124.95311 L -175.72824 -124.95311 C -176.79882 -124.79245 -177.94153 -125.48749 -178.14308 -126.57937 C -178.22988 -128.73176 -178.15548 -130.89342 -178.18028 -133.04926 C -178.13508 -134.32395 -178.27177 -135.61575 -178.10845 -136.88003 C -177.32803 -138.87589 -176.40669 -140.8215 -175.57217 -142.79802 C -175.1468 -143.37471 -175.45804 -143.46861 -176.0476 -143.38041 C -176.685 -143.28826 -177.07952 -143.95784 -176.95245 -144.52556 C -176.94662 -145.11591 -177.11423 -146.03747 -176.33492 -146.20504 C -173.83793 -146.25204 -171.33632 -146.2118 -168.8377 -146.2252 C -168.51407 -146.1785 -168.13413 -146.24301 -167.77782 -146.24225 z M -118.07749 -145.24903 C -118.60229 -145.24903 -119.25248 -145.21459 -120.02828 -145.14619 C -120.80407 -145.10055 -121.45426 -145.03234 -121.97906 -144.94104 L -121.97906 -123.85757 C -121.45426 -123.7663 -120.82664 -123.69801 -120.09649 -123.65241 C -119.36633 -123.60681 -118.59041 -123.58368 -117.76898 -123.58368 C -114.14101 -123.58368 -111.33446 -124.5423 -109.34934 -126.45896 C -107.34141 -128.37562 -106.33764 -131.03336 -106.33764 -134.43315 C -106.33764 -137.9014 -107.35322 -140.57145 -109.38397 -142.44248 C -111.41471 -144.31351 -114.31261 -145.24903 -118.07749 -145.24903 z M -161.82263 -143.73439 L -161.82263 -138.49647 C -162.78064 -138.62062 -163.62635 -139.34652 -163.92121 -140.26225 C -164.44153 -141.70371 -163.4848 -143.45076 -161.95957 -143.71734 L -161.90169 -143.72457 L -161.82263 -143.73439 z M -158.35307 -140.70254 C -157.07776 -140.73141 -155.8693 -139.75244 -155.71137 -138.46546 L -160.95084 -138.46546 C -160.80407 -139.62324 -159.77482 -140.60182 -158.60887 -140.68342 C -158.52355 -140.69462 -158.43807 -140.70054 -158.35307 -140.70254 z M -161.00304 -136.39376 C -159.21674 -136.30583 -157.49712 -135.51986 -156.29273 -134.17684 C -153.78652 -131.62412 -153.84269 -127.07407 -156.4152 -124.58724 C -158.74267 -122.05578 -163.03466 -121.78501 -165.68699 -123.95317 C -167.49998 -125.33694 -168.53052 -127.63967 -168.33799 -129.91456 C -168.2251 -133.32464 -165.18283 -136.32227 -161.77198 -136.38807 C -161.51541 -136.40397 -161.25822 -136.40584 -161.00304 -136.39324 L -161.00304 -136.39376 z M -161.4025 -134.78093 C -161.46899 -134.78093 -161.53505 -134.77367 -161.60145 -134.77267 C -164.4426 -134.76136 -166.93246 -132.08351 -166.72827 -129.24691 C -166.71705 -126.43491 -164.09257 -123.95853 -161.28261 -124.11595 C -158.43918 -124.08525 -155.91249 -126.7274 -156.07156 -129.5673 C -156.04526 -132.368 -158.60523 -134.86243 -161.4025 -134.78093 z " /></g></svg>
