<?xml version="1.0" encoding="UTF-8" standalone="no"?>
<svg
   width="48"
   height="46"
   fill="none"
   viewBox="0 0 48 46"
   version="1.1"
   id="svg31"
   sodipodi:docname="favicon.svg"
   inkscape:version="1.4.2 (ebf0e940d0, 2025-05-08)"
   xml:space="preserve"
   xmlns:inkscape="http://www.inkscape.org/namespaces/inkscape"
   xmlns:sodipodi="http://sodipodi.sourceforge.net/DTD/sodipodi-0.dtd"
   xmlns="http://www.w3.org/2000/svg"
   xmlns:svg="http://www.w3.org/2000/svg"><sodipodi:namedview
     id="namedview31"
     pagecolor="#ffffff"
     bordercolor="#000000"
     borderopacity="0.25"
     inkscape:showpageshadow="2"
     inkscape:pageopacity="0.0"
     inkscape:pagecheckerboard="0"
     inkscape:deskcolor="#d1d1d1"
     inkscape:zoom="4.3423913"
     inkscape:cx="-37.076345"
     inkscape:cy="11.629537"
     inkscape:window-width="1920"
     inkscape:window-height="1008"
     inkscape:window-x="0"
     inkscape:window-y="0"
     inkscape:window-maximized="1"
     inkscape:current-layer="svg31"
     showguides="true"><sodipodi:guide
       position="23.874229,37.18925"
       orientation="1,0"
       id="guide31"
       inkscape:locked="false" /><sodipodi:guide
       position="-5.3641162,22.820695"
       orientation="0,-1"
       id="guide32"
       inkscape:locked="false" /></sodipodi:namedview><mask
     id="a"
     width="48"
     height="46"
     x="0"
     y="0"
     maskUnits="userSpaceOnUse"
     style="mask-type:alpha"><path
       fill="#000"
       d="M25.842 44.938c-.664.844-2.021.375-2.021-.698V33.937a2.26 2.26 0 0 0-2.262-2.262H10.183c-.92 0-1.456-1.04-.92-1.788l7.48-10.471c1.07-1.498 0-3.579-1.842-3.579H1.133c-.92 0-1.456-1.04-.92-1.787L9.91.473c.214-.297.556-.474.92-.474h28.894c.92 0 1.456 1.04.92 1.788l-7.48 10.471c-1.07 1.498 0 3.578 1.842 3.578h11.377c.943 0 1.473 1.088.89 1.832L25.843 44.94z"
       style="fill:#000;fill-opacity:1"
       id="path2" /></mask><defs
     id="defs31"><filter
       id="b"
       width="60.045"
       height="41.654"
       x="-19.77"
       y="16.149"
       color-interpolation-filters="sRGB"
       filterUnits="userSpaceOnUse"><feFlood
         flood-opacity="0"
         result="BackgroundImageFix"
         id="feFlood17" /><feBlend
         in="SourceGraphic"
         in2="BackgroundImageFix"
         result="shape"
         id="feBlend17" /><feGaussianBlur
         result="effect1_foregroundBlur_2002_17158"
         stdDeviation="7.659"
         id="feGaussianBlur17" /></filter><filter
       id="c"
       width="90.34"
       height="51.437"
       x="-54.613"
       y="-7.533"
       color-interpolation-filters="sRGB"
       filterUnits="userSpaceOnUse"><feFlood
         flood-opacity="0"
         result="BackgroundImageFix"
         id="feFlood18" /><feBlend
         in="SourceGraphic"
         in2="BackgroundImageFix"
         result="shape"
         id="feBlend18" /><feGaussianBlur
         result="effect1_foregroundBlur_2002_17158"
         stdDeviation="7.659"
         id="feGaussianBlur18" /></filter><filter
       id="d"
       width="79.355"
       height="29.4"
       x="-49.64"
       y="2.03"
       color-interpolation-filters="sRGB"
       filterUnits="userSpaceOnUse"><feFlood
         flood-opacity="0"
         result="BackgroundImageFix"
         id="feFlood19" /><feBlend
         in="SourceGraphic"
         in2="BackgroundImageFix"
         result="shape"
         id="feBlend19" /><feGaussianBlur
         result="effect1_foregroundBlur_2002_17158"
         stdDeviation="4.596"
         id="feGaussianBlur19" /></filter><filter
       id="e"
       width="79.579"
       height="29.4"
       x="-45.045"
       y="20.029"
       color-interpolation-filters="sRGB"
       filterUnits="userSpaceOnUse"><feFlood
         flood-opacity="0"
         result="BackgroundImageFix"
         id="feFlood20" /><feBlend
         in="SourceGraphic"
         in2="BackgroundImageFix"
         result="shape"
         id="feBlend20" /><feGaussianBlur
         result="effect1_foregroundBlur_2002_17158"
         stdDeviation="4.596"
         id="feGaussianBlur20" /></filter><filter
       id="f"
       width="79.579"
       height="29.4"
       x="-43.513"
       y="21.178"
       color-interpolation-filters="sRGB"
       filterUnits="userSpaceOnUse"><feFlood
         flood-opacity="0"
         result="BackgroundImageFix"
         id="feFlood21" /><feBlend
         in="SourceGraphic"
         in2="BackgroundImageFix"
         result="shape"
         id="feBlend21" /><feGaussianBlur
         result="effect1_foregroundBlur_2002_17158"
         stdDeviation="4.596"
         id="feGaussianBlur21" /></filter><filter
       id="g"
       width="74.749"
       height="58.852"
       x="15.756"
       y="-17.901"
       color-interpolation-filters="sRGB"
       filterUnits="userSpaceOnUse"><feFlood
         flood-opacity="0"
         result="BackgroundImageFix"
         id="feFlood22" /><feBlend
         in="SourceGraphic"
         in2="BackgroundImageFix"
         result="shape"
         id="feBlend22" /><feGaussianBlur
         result="effect1_foregroundBlur_2002_17158"
         stdDeviation="7.659"
         id="feGaussianBlur22" /></filter><filter
       id="h"
       width="61.377"
       height="25.362"
       x="23.548"
       y="2.284"
       color-interpolation-filters="sRGB"
       filterUnits="userSpaceOnUse"><feFlood
         flood-opacity="0"
         result="BackgroundImageFix"
         id="feFlood23" /><feBlend
         in="SourceGraphic"
         in2="BackgroundImageFix"
         result="shape"
         id="feBlend23" /><feGaussianBlur
         result="effect1_foregroundBlur_2002_17158"
         stdDeviation="4.596"
         id="feGaussianBlur23" /></filter><filter
       id="i"
       width="61.377"
       height="25.362"
       x="23.548"
       y="2.284"
       color-interpolation-filters="sRGB"
       filterUnits="userSpaceOnUse"><feFlood
         flood-opacity="0"
         result="BackgroundImageFix"
         id="feFlood24" /><feBlend
         in="SourceGraphic"
         in2="BackgroundImageFix"
         result="shape"
         id="feBlend24" /><feGaussianBlur
         result="effect1_foregroundBlur_2002_17158"
         stdDeviation="4.596"
         id="feGaussianBlur24" /></filter><filter
       id="j"
       width="56.045"
       height="63.649"
       x="-27.636"
       y="-22.853"
       color-interpolation-filters="sRGB"
       filterUnits="userSpaceOnUse"><feFlood
         flood-opacity="0"
         result="BackgroundImageFix"
         id="feFlood25" /><feBlend
         in="SourceGraphic"
         in2="BackgroundImageFix"
         result="shape"
         id="feBlend25" /><feGaussianBlur
         result="effect1_foregroundBlur_2002_17158"
         stdDeviation="4.596"
         id="feGaussianBlur25" /></filter><filter
       id="k"
       width="54.814"
       height="64.646"
       x="20.116"
       y="-38.415"
       color-interpolation-filters="sRGB"
       filterUnits="userSpaceOnUse"><feFlood
         flood-opacity="0"
         result="BackgroundImageFix"
         id="feFlood26" /><feBlend
         in="SourceGraphic"
         in2="BackgroundImageFix"
         result="shape"
         id="feBlend26" /><feGaussianBlur
         result="effect1_foregroundBlur_2002_17158"
         stdDeviation="4.596"
         id="feGaussianBlur26" /></filter><filter
       id="l"
       width="33.541"
       height="35.313"
       x="24.641"
       y="-11.323"
       color-interpolation-filters="sRGB"
       filterUnits="userSpaceOnUse"><feFlood
         flood-opacity="0"
         result="BackgroundImageFix"
         id="feFlood27" /><feBlend
         in="SourceGraphic"
         in2="BackgroundImageFix"
         result="shape"
         id="feBlend27" /><feGaussianBlur
         result="effect1_foregroundBlur_2002_17158"
         stdDeviation="4.596"
         id="feGaussianBlur27" /></filter><filter
       id="m"
       width="54.814"
       height="64.646"
       x="-29.286"
       y="6.009"
       color-interpolation-filters="sRGB"
       filterUnits="userSpaceOnUse"><feFlood
         flood-opacity="0"
         result="BackgroundImageFix"
         id="feFlood28" /><feBlend
         in="SourceGraphic"
         in2="BackgroundImageFix"
         result="shape"
         id="feBlend28" /><feGaussianBlur
         result="effect1_foregroundBlur_2002_17158"
         stdDeviation="4.596"
         id="feGaussianBlur28" /></filter><filter
       id="n"
       width="54.814"
       height="64.646"
       x="-29.286"
       y="6.009"
       color-interpolation-filters="sRGB"
       filterUnits="userSpaceOnUse"><feFlood
         flood-opacity="0"
         result="BackgroundImageFix"
         id="feFlood29" /><feBlend
         in="SourceGraphic"
         in2="BackgroundImageFix"
         result="shape"
         id="feBlend29" /><feGaussianBlur
         result="effect1_foregroundBlur_2002_17158"
         stdDeviation="4.596"
         id="feGaussianBlur29" /></filter><filter
       id="o"
       width="54.814"
       height="64.646"
       x="8.244"
       y="-2.416"
       color-interpolation-filters="sRGB"
       filterUnits="userSpaceOnUse"><feFlood
         flood-opacity="0"
         result="BackgroundImageFix"
         id="feFlood30" /><feBlend
         in="SourceGraphic"
         in2="BackgroundImageFix"
         result="shape"
         id="feBlend30" /><feGaussianBlur
         result="effect1_foregroundBlur_2002_17158"
         stdDeviation="4.596"
         id="feGaussianBlur30" /></filter><filter
       id="p"
       width="39.409"
       height="43.623"
       x="18.713"
       y="10.588"
       color-interpolation-filters="sRGB"
       filterUnits="userSpaceOnUse"><feFlood
         flood-opacity="0"
         result="BackgroundImageFix"
         id="feFlood31" /><feBlend
         in="SourceGraphic"
         in2="BackgroundImageFix"
         result="shape"
         id="feBlend31" /><feGaussianBlur
         result="effect1_foregroundBlur_2002_17158"
         stdDeviation="4.596"
         id="feGaussianBlur31" /></filter><path
       id="a-3"
       d="M-17.311-331.563h296.942v195.742H-17.311z" /></defs><g
     id="g31"
     transform="matrix(10.749709,0,0,10.749709,-256.70992,-407.29709)"
     style="fill:#5eaa19;fill-opacity:1"><path
       style="font-weight:700;font-size:45.1052px;font-family:Ubuntu;-inkscape-font-specification:'Ubuntu Bold';text-align:start;writing-mode:lr-tb;direction:ltr;text-anchor:start;opacity:1;fill:#5eaa19;fill-opacity:1;stroke-width:0.4899"
       d="m 25.888624,37.930136 c -0.156132,0.008 -0.174772,0.0029 -0.182479,0.0032 -0.428284,0.0023 -0.858261,-0.0048 -1.288628,0.0032 -0.004,5.9e-5 -0.008,4.96e-4 -0.01173,0.0013 -0.04259,0.0085 -0.08091,0.03157 -0.108453,0.06517 -0.0248,0.03141 -0.03651,0.06779 -0.04248,0.102053 -0.01147,0.06595 -0.0043,0.131252 -0.004,0.175811 -0.01253,0.06477 0.0026,0.130986 0.03989,0.183119 0.03872,0.05408 0.108559,0.09216 0.186105,0.08093 8.8e-5,3e-6 1.7e-4,3e-6 2.61e-4,0 0.01067,-0.0016 0.01627,-0.0012 0.0248,-0.0018 -0.0013,0.0021 -6.53e-4,0.0017 -0.0022,0.004 -0.0029,0.0037 -0.0053,0.008 -0.0072,0.01227 -0.142585,0.337959 -0.301077,0.672791 -0.436233,1.018311 -0.0018,0.0048 -0.0029,0.0096 -0.0037,0.01467 -0.0292,0.226798 -0.0053,0.450311 -0.01307,0.66341 -2.4e-5,10e-4 -2.4e-5,0.002 0,0.0029 0.0043,0.368458 -0.0083,0.740436 0.0067,1.113195 1.44e-4,0.0029 4.83e-4,0.0059 0.001,0.0088 0.04117,0.222878 0.266024,0.360378 0.481198,0.33001 h 0.872598 c 0.04667,1.55e-4 0.07672,-0.04941 0.05501,-0.09072 -0.04392,-0.08381 -0.07821,-0.173358 -0.104266,-0.265491 -0.0075,-0.02667 -0.03179,-0.04504 -0.05944,-0.04509 h -0.851483 v -1.615903 c 0.163039,-0.382666 0.326232,-0.765329 0.489151,-1.148125 h 0.519648 l 0.407298,0.960314 c 0.016,0.03784 0.06397,0.04973 0.09592,0.02373 0.06947,-0.05605 0.148186,-0.103893 0.229918,-0.149359 0.02781,-0.01547 0.03939,-0.04952 0.02672,-0.07872 L 25.87973,38.54329 c 0.02685,0 0.04744,0.0032 0.07664,-0.0016 0.06451,-0.01067 0.139466,-0.0528 0.164212,-0.135545 0.0016,-0.0053 0.0025,-0.01093 0.0026,-0.01653 0.0026,-0.101279 0.03011,-0.230318 -0.02,-0.355818 -0.0019,-0.0051 -0.0045,-0.0096 -0.0075,-0.01413 -0.05371,-0.07272 -0.138292,-0.08968 -0.207225,-0.08992 z m 1.022481,0.430629 c -0.0027,2e-6 -0.0053,1.84e-4 -0.008,5.22e-4 -0.02213,0.0029 -0.01787,0.0026 -0.02613,0.0035 -0.302637,0.05291 -0.487193,0.389703 -0.38449,0.675138 0.05867,0.180265 0.220932,0.319322 0.41069,0.343823 0.03699,0.0048 0.06979,-0.024 0.06987,-0.06125 v -0.899707 c 0,-0.03424 -0.02779,-0.06197 -0.06203,-0.06192 z m 0.594592,0.520952 c -0.01573,3.9e-4 -0.03155,0.0016 -0.04797,0.0035 -0.231464,0.01707 -0.428804,0.204878 -0.457867,0.434801 -0.0048,0.03693 0.024,0.06963 0.06125,0.06973 h 0.899968 c 0.03712,-1.15e-4 0.06579,-0.03264 0.06125,-0.06947 -0.03128,-0.255198 -0.264851,-0.444316 -0.516518,-0.43858 z m -0.450572,0.740306 c -0.04539,-0.0023 -0.09085,-0.0021 -0.136212,6.53e-4 -0.620658,0.012 -1.166504,0.549232 -1.188272,1.169502 -0.03453,0.41186 0.150266,0.825413 0.477681,1.07631 l 9.12e-4,5.2e-4 c 0.482244,0.393615 1.250962,0.345522 1.674945,-0.113786 0.466991,-0.452654 0.477417,-1.26686 0.0232,-1.731768 l -5.2e-4,-6.51e-4 c -0.218318,-0.243198 -0.529033,-0.385012 -0.851744,-0.400914 z m -0.07131,0.400521 c 4.83e-4,6e-6 9.52e-4,6e-6 0.0014,0 0.44262,-0.0128 0.856304,0.390096 0.852003,0.833105 -4e-5,0.0013 -4e-5,0.0026 0,0.004 0.02507,0.449135 -0.382666,0.876115 -0.832323,0.871293 -0.0014,-5e-5 -0.0029,-5e-5 -0.0043,0 -0.444444,0.0248 -0.868035,-0.375106 -0.869859,-0.819811 4e-5,-0.0013 4e-5,-0.0026 0,-0.004 -0.03232,-0.448614 0.369632,-0.881459 0.818897,-0.883152 4.32e-4,3e-6 8.75e-4,3e-6 0.0013,0 0.01387,-2.61e-4 0.0248,-0.0013 0.03285,-0.0013 z"
       id="path2-6"
       sodipodi:nodetypes="ccccccccccccccccccccccccccccccccccccccsccccccccccccccccccccccccccccccccccccccc" /></g></svg>
